<?xml version="1.0" encoding="UTF-8" standalone="no"?>
<svg width="342px" height="185px" viewBox="0 0 342 185" version="1.1" xmlns="http://www.w3.org/2000/svg" xmlns:xlink="http://www.w3.org/1999/xlink" xmlns:sketch="http://www.bohemiancoding.com/sketch/ns">
    <title>rouge-rose_sprite</title>
    <description>Created with Sketch (http://www.bohemiancoding.com/sketch)</description>
    <defs></defs>
    <g id="Page-3" stroke="none" stroke-width="1" fill="none" fill-rule="evenodd" sketch:type="MSPage">
        <path d="M4.49983724,8 L338.554199,8" id="prev" stroke="#000000" stroke-width="2" stroke-linecap="square" sketch:type="MSShapeGroup"></path>
        <path id="prev-decoration-1" d="M16.0998376,11 C12.3198375,9.95 9.07983738,9.05 5.29983726,8 C9.07983738,6.95 12.3198375,6.05 16.0998376,5" stroke="#000000" stroke-width="2" stroke-linecap="square"></path>
        <path d="M4.49983724,55 L338.554199,55" id="next" stroke="#000000" stroke-width="2" stroke-linecap="square" sketch:type="MSShapeGroup"></path>
        <path id="next-decoration-1" d="M327.699847,58 C331.479847,56.95 334.719847,56.05 338.499847,55 C334.719847,53.95 331.479847,53.05 327.699847,52" stroke="#000000" stroke-width="2" stroke-linecap="square"></path>
        <path d="M32,152 L0.333333333,120.333333 L32,152 L0.333333333,183.666667 L32,152 Z M32,152 L63.798111,183.798111 L32,152 L63.798111,120.201889 L32,152 Z" id="Line" stroke="#000000" stroke-width="2" stroke-linecap="square" sketch:type="MSShapeGroup"></path>
        <path d="M132.5,120 L101,151.5 L133.003906,183.503906" id="Path-5" stroke="#000000" stroke-width="2" sketch:type="MSShapeGroup"></path>
        <path d="M200.5,120 L169,151.5 L201.003906,183.503906" id="Path-5-copy" stroke="#000000" stroke-width="2" sketch:type="MSShapeGroup" transform="translate(185.000000, 152.000000) rotate(-180.000000) translate(-185.000000, -152.000000) "></path>
    </g>
</svg>