<?xml version="1.0" encoding="UTF-8" standalone="no"?>
<svg width="204px" height="70px" viewBox="0 0 204 70" version="1.1" xmlns="http://www.w3.org/2000/svg" xmlns:xlink="http://www.w3.org/1999/xlink" xmlns:sketch="http://www.bohemiancoding.com/sketch/ns">
    <title>rouge-rose_sprite</title>
    <description>Created with Sketch (http://www.bohemiancoding.com/sketch)</description>
    <defs></defs>
    <g id="logo" stroke="none" stroke-width="1" fill="none" fill-rule="evenodd" sketch:type="MSPage">
        <path d="M78.5,1.5 L58.5,65.5" id="Line" stroke="#000000" stroke-linecap="square" sketch:type="MSShapeGroup"></path>
        <path d="M74.0732731,51.5848397 C73.2396659,51.3492551 72.6235214,51.2405237 72.0617427,51.2405237 C69.6515305,51.2405237 67.64,53.3607856 67.64,55.9159729 C67.64,58.0724786 69.1441174,59.7940587 71.0469165,59.7940587 C72.0617427,59.7940587 73.1309345,59.3228894 74.0732731,58.4349165 L74.0732731,59.7940587 L74.5263205,59.7940587 L76.9002889,59.2866456 L76.9002889,58.5617698 C75.9941941,58.8335982 75.5955124,58.525526 75.5955124,57.7281625 L75.5955124,47 L75.142465,47 L72.7503747,47.706754 L72.7503747,48.1235576 L74.0732731,48.8484334 L74.0732731,51.5848397 Z M74.0732731,57.5469436 C73.5477381,58.2174537 72.7866185,58.5798916 71.9348894,58.5798916 C69.8508713,58.5798916 69.1622393,56.242167 69.1622393,54.9736343 C69.1622393,53.3426637 70.3039187,52.0197652 71.6811828,52.0197652 C72.6778871,52.0197652 74.0732731,52.762763 74.0732731,54.9736343 C74.0732731,54.9736343 74.0732731,52.762763 74.0732731,54.9736343 L74.0732731,57.5469436 Z M85.2182393,54.5749526 C85.2182393,53.288298 84.2034131,51.2405237 81.8656885,51.2405237 C79.7273047,51.2405237 78.0782122,53.1252009 78.0782122,55.6079007 C78.0782122,58.0362348 79.6548172,59.7940587 81.8475666,59.7940587 C83.2248307,59.7940587 84.4389977,59.0873047 85.2182393,57.818772 L84.8376795,57.474456 C84.1490474,58.0724786 83.4241716,58.344307 82.5724424,58.344307 C80.8871061,58.344307 79.3467449,57.0032867 79.4373544,54.5749526 C79.4373544,54.5749526 79.3467449,57.0032867 79.4373544,54.5749526 L85.2182393,54.5749526 Z M79.5460858,53.9225643 C79.7091828,52.6902754 80.4703025,51.9110339 81.5213725,51.9110339 C82.5180767,51.9110339 83.170465,52.6359097 83.3154402,53.9225643 C83.3154402,53.9225643 83.170465,52.6359097 83.3154402,53.9225643 L79.5460858,53.9225643 Z M91.6333905,52.0197652 C90.9628804,51.4942302 90.147395,51.2405237 89.1869345,51.2405237 C87.6284515,51.2405237 86.5411377,52.1647404 86.5411377,53.4876388 C86.5411377,54.0131738 86.7404786,54.6293183 87.1029165,54.9917562 C88.588912,56.4777517 90.9810023,56.4415079 90.9810023,57.8368939 C90.9810023,58.5798916 90.2923702,59.1235485 89.3319097,59.1235485 C88.2445959,59.1235485 87.5740858,58.344307 87.3928668,56.9307991 L86.7948442,56.9307991 L86.7948442,59.214158 C87.4834763,59.558474 88.5526682,59.7940587 89.458763,59.7940587 C91.1622212,59.7940587 92.2314131,58.8879639 92.2314131,57.4019684 C92.2314131,56.8039458 92.0320722,56.2240451 91.6515124,55.8434853 C90.6185643,54.8105372 87.8640361,54.4843431 87.8640361,53.1252009 C87.8640361,52.3459594 88.3714492,51.9110339 89.2231783,51.9110339 C90.2198826,51.9110339 90.7997833,52.5453002 91.0716117,53.97693 L91.6333905,53.97693 L91.6333905,52.0197652 Z M94.8228442,57.6194312 C94.8228442,58.525526 94.2066998,58.9423296 93.5180677,58.9423296 L93.5180677,59.5947178 L97.4686411,59.5947178 L97.4686411,58.9423296 C96.8162528,58.9242077 96.3450835,58.4892822 96.3450835,57.4925779 L96.3450835,51.2405237 L95.8920361,51.2405237 L93.4455801,52.1284966 L93.4455801,52.5453002 L94.8228442,53.2339323 L94.8228442,57.6194312 Z M94.5328939,47.9785824 C94.5328939,48.5222393 94.9678194,48.9571648 95.5114763,48.9571648 C96.0551332,48.9571648 96.4900587,48.5222393 96.4900587,47.9785824 C96.4900587,47.4349255 96.0551332,47 95.5114763,47 C94.9678194,47 94.5328939,47.4349255 94.5328939,47.9785824 C94.5328939,47.9785824 94.5328939,47.4349255 94.5328939,47.9785824 Z M106.873905,51.7298149 C106.565833,51.7660587 106.420858,51.7841806 106.094664,51.7841806 C105.097959,51.7841806 104.409327,51.6392054 103.811305,51.4942302 C103.213282,51.3492551 102.687747,51.2405237 102.035359,51.2405237 C100.205047,51.2405237 98.8640271,52.5271783 98.8640271,54.1943928 C98.8640271,55.2454628 99.3533183,56.0428262 100.350023,56.6227269 C99.3170745,57.474456 98.8459052,58.0362348 98.8459052,58.4711603 C98.8459052,58.869842 99.1902212,59.1960361 99.8788533,59.5041084 C98.7552957,60.3558375 98.3384921,60.8813725 98.3384921,61.3887856 C98.3384921,62.0230519 99.2989526,63.056 101.85414,63.056 C104.608668,63.056 106.620199,61.8055892 106.620199,60.0658871 C106.620199,58.869842 105.406032,58.163088 103.738817,58.163088 L102.289065,58.163088 C100.784948,58.163088 100.368144,58.0181129 100.368144,57.5831874 C100.368144,57.3657246 100.549363,57.2026275 100.911801,56.8945553 C101.455458,57.0032867 101.76353,57.0395305 102.053481,57.0395305 C103.430745,57.0395305 105.406032,56.1696795 105.406032,54.1219052 C105.406032,53.6869797 105.333544,53.3245418 105.134203,52.8533725 C105.714104,52.9983476 106.43898,53.0345914 106.873905,52.9621038 C106.873905,52.9621038 106.43898,53.0345914 106.873905,52.9621038 L106.873905,51.7298149 Z M100.458754,54.0131738 C100.458754,52.7990068 101.18363,52.0197652 101.999115,52.0197652 C102.742113,52.0197652 103.811305,52.7083973 103.811305,54.3393679 C103.811305,55.553535 103.28577,56.3508984 102.252822,56.3508984 C101.09302,56.3508984 100.458754,55.2817065 100.458754,54.0131738 C100.458754,54.0131738 100.458754,55.2817065 100.458754,54.0131738 Z M103.19516,59.7940587 C104.789887,59.7940587 105.442275,60.0658871 105.442275,60.7545192 C105.442275,61.7874673 103.340135,62.1317833 102.180334,62.1317833 C101.691043,62.1317833 99.6432686,61.9868081 99.6432686,60.9357381 C99.6432686,60.5370564 99.8788533,60.265228 100.494998,59.6490835 C101.147386,59.739693 101.709165,59.7940587 102.289065,59.7940587 C102.289065,59.7940587 101.709165,59.7940587 102.289065,59.7940587 L103.19516,59.7940587 Z M110.117725,53.5238826 C110.896966,52.8714944 111.658086,52.4546907 112.491693,52.4546907 C113.669616,52.4546907 114.195151,53.3064199 114.195151,54.4480993 L114.195151,57.4563341 C114.195151,58.4349165 113.778348,58.9423296 112.727278,58.9423296 L112.727278,59.5947178 L117.004045,59.5947178 L117.004045,58.9423296 C115.971097,58.8335982 115.717391,58.3986727 115.717391,57.4925779 L115.717391,54.0494176 C115.717391,52.0922528 114.738808,51.2405237 113.053472,51.2405237 C112.056767,51.2405237 110.896966,51.8023025 110.153968,52.7808849 L110.117725,52.7808849 L110.117725,51.2405237 L109.664677,51.2405237 L107.381318,52.0922528 L107.381318,52.5090564 L108.595485,53.1976885 L108.595485,57.5650655 C108.595485,58.4711603 108.16056,58.9060858 107.254465,58.9423296 L107.254465,59.5947178 L111.585598,59.5947178 L111.585598,58.9423296 C110.516406,58.9423296 110.117725,58.4530384 110.117725,57.4563341 C110.117725,57.4563341 110.117725,58.4530384 110.117725,57.4563341 L110.117725,53.5238826 Z M131.356587,51.7298149 C131.048515,51.7660587 130.90354,51.7841806 130.577345,51.7841806 C129.580641,51.7841806 128.892009,51.6392054 128.293986,51.4942302 C127.695964,51.3492551 127.170429,51.2405237 126.518041,51.2405237 C124.687729,51.2405237 123.346709,52.5271783 123.346709,54.1943928 C123.346709,55.2454628 123.836,56.0428262 124.832704,56.6227269 C123.799756,57.474456 123.328587,58.0362348 123.328587,58.4711603 C123.328587,58.869842 123.672903,59.1960361 124.361535,59.5041084 C123.237977,60.3558375 122.821174,60.8813725 122.821174,61.3887856 C122.821174,62.0230519 123.781634,63.056 126.336822,63.056 C129.09135,63.056 131.10288,61.8055892 131.10288,60.0658871 C131.10288,58.869842 129.888713,58.163088 128.221499,58.163088 L126.771747,58.163088 C125.26763,58.163088 124.850826,58.0181129 124.850826,57.5831874 C124.850826,57.3657246 125.032045,57.2026275 125.394483,56.8945553 C125.93814,57.0032867 126.246212,57.0395305 126.536163,57.0395305 C127.913427,57.0395305 129.888713,56.1696795 129.888713,54.1219052 C129.888713,53.6869797 129.816226,53.3245418 129.616885,52.8533725 C130.196786,52.9983476 130.921661,53.0345914 131.356587,52.9621038 C131.356587,52.9621038 130.921661,53.0345914 131.356587,52.9621038 L131.356587,51.7298149 Z M124.941436,54.0131738 C124.941436,52.7990068 125.666312,52.0197652 126.481797,52.0197652 C127.224795,52.0197652 128.293986,52.7083973 128.293986,54.3393679 C128.293986,55.553535 127.768451,56.3508984 126.735503,56.3508984 C125.575702,56.3508984 124.941436,55.2817065 124.941436,54.0131738 C124.941436,54.0131738 124.941436,55.2817065 124.941436,54.0131738 Z M127.677842,59.7940587 C129.272569,59.7940587 129.924957,60.0658871 129.924957,60.7545192 C129.924957,61.7874673 127.822817,62.1317833 126.663016,62.1317833 C126.173725,62.1317833 124.12595,61.9868081 124.12595,60.9357381 C124.12595,60.5370564 124.361535,60.265228 124.977679,59.6490835 C125.630068,59.739693 126.191847,59.7940587 126.771747,59.7940587 C126.771747,59.7940587 126.191847,59.7940587 126.771747,59.7940587 L127.677842,59.7940587 Z M135.053454,54.0131738 C135.77833,52.9802257 136.104524,52.6721535 136.539449,52.6721535 C137.137472,52.6721535 137.282447,53.5238826 137.898591,53.5238826 C138.46037,53.5238826 138.641589,52.4365688 138.641589,52.3459594 C138.641589,51.9835214 138.097932,51.3130113 137.300569,51.3130113 C136.35823,51.3130113 135.905183,51.6935711 135.089698,53.0345914 L135.053454,53.0345914 L135.053454,51.2405237 L134.600406,51.2405237 L132.190194,52.2191061 L132.190194,52.6359097 L133.531214,53.3064199 L133.531214,57.5469436 C133.531214,58.5798916 132.91507,58.9423296 132.190194,58.9423296 L132.190194,59.5947178 L136.901887,59.5947178 L136.901887,58.9423296 C135.30716,58.9423296 135.053454,58.5617698 135.053454,57.2026275 C135.053454,57.2026275 135.053454,58.5617698 135.053454,57.2026275 L135.053454,54.0131738 Z M144.114402,54.683684 L142.175359,55.3541941 C140.163828,56.0428262 139.402709,56.7314582 139.402709,57.8550158 C139.402709,58.9785734 140.254438,59.7940587 141.432361,59.7940587 C142.320334,59.7940587 143.063332,59.4316208 144.114402,58.4892822 C144.205011,59.3228894 144.658059,59.7940587 145.346691,59.7940587 C145.835982,59.7940587 146.289029,59.5403521 146.814564,58.9423296 L146.651467,58.2899413 C146.035323,58.688623 145.636641,58.4892822 145.636641,57.818772 L145.636641,53.1795666 C145.636641,51.8023025 144.712424,51.2405237 142.990844,51.2405237 C140.616876,51.2405237 139.656415,52.5090564 139.656415,53.3607856 C139.656415,53.7594673 140.145707,54.6655621 140.254438,54.6111964 L141.32363,54.1037833 C141.794799,53.8863205 141.051801,53.2701761 141.051801,52.8714944 C141.051801,52.4546907 141.740433,52.0197652 142.447187,52.0197652 C143.04521,52.0197652 144.114402,52.3822032 144.114402,53.451395 C144.114402,53.451395 144.114402,52.3822032 144.114402,53.451395 L144.114402,54.683684 Z M144.114402,55.372316 L144.114402,57.637553 C143.498257,58.2899413 142.936479,58.5798916 142.28409,58.5798916 C141.377995,58.5798916 141.015558,57.9637472 141.015558,57.4019684 C141.015558,56.6408488 141.686068,56.2784108 143.153941,55.734754 C143.153941,55.734754 141.686068,56.2784108 143.153941,55.734754 L144.114402,55.372316 Z M150.330212,59.2685237 C151.018844,59.6128397 151.74372,59.7940587 152.450474,59.7940587 C154.751955,59.7940587 156.61851,57.6919187 156.61851,55.0823657 C156.61851,52.8352506 155.241246,51.2405237 153.284081,51.2405237 C152.178646,51.2405237 151.272551,51.6573273 150.330212,52.5996659 L150.330212,51.2405237 L149.877165,51.2405237 L147.521318,52.1284966 L147.521318,52.5453002 L148.807973,53.2339323 L148.807973,61.0807133 C148.807973,61.841833 148.354926,62.4036117 147.466953,62.4036117 L147.466953,63.056 L151.870573,63.056 L151.870573,62.4036117 C150.837625,62.4036117 150.330212,62.0955395 150.330212,60.8994944 C150.330212,60.8994944 150.330212,62.0955395 150.330212,60.8994944 L150.330212,59.2685237 Z M150.330212,53.3426637 C151.018844,52.7990068 151.779964,52.5090564 152.468596,52.5090564 C153.55591,52.5090564 155.096271,53.3970293 155.096271,55.9159729 C155.096271,57.9093815 154.13581,59.0148172 152.595449,59.0148172 C151.308795,59.0148172 150.330212,58.1268442 150.330212,56.5683612 C150.330212,56.5683612 150.330212,58.1268442 150.330212,56.5683612 L150.330212,53.3426637 Z M165.98753,53.8681986 C165.98753,51.9472777 164.809607,51.2405237 163.504831,51.2405237 C162.417517,51.2405237 161.638275,51.5848397 160.496596,52.5996659 L160.496596,47 L160.043549,47 L157.615214,47.8336072 L157.615214,48.2504108 L158.974357,49.0115305 L158.974357,57.4925779 C158.974357,58.2536975 158.684406,58.9423296 157.615214,58.9423296 L157.615214,59.5947178 L161.946348,59.5947178 L161.946348,58.9423296 C160.877156,58.9423296 160.496596,58.4711603 160.496596,57.3657246 L160.496596,53.288298 C161.167106,52.762763 161.946348,52.4546907 162.707467,52.4546907 C163.758537,52.4546907 164.465291,53.1252009 164.465291,54.2306366 L164.465291,57.637553 C164.465291,58.3624289 164.066609,58.9423296 163.106149,58.9423296 L163.106149,59.5947178 L167.310429,59.5947178 L167.310429,58.9423296 C166.549309,58.9423296 165.98753,58.525526 165.98753,57.5469436 C165.98753,57.5469436 165.98753,58.525526 165.98753,57.5469436 L165.98753,53.8681986 Z M169.448813,57.6194312 C169.448813,58.525526 168.832668,58.9423296 168.144036,58.9423296 L168.144036,59.5947178 L172.094609,59.5947178 L172.094609,58.9423296 C171.442221,58.9242077 170.971052,58.4892822 170.971052,57.4925779 L170.971052,51.2405237 L170.518005,51.2405237 L168.071549,52.1284966 L168.071549,52.5453002 L169.448813,53.2339323 L169.448813,57.6194312 Z M169.158862,47.9785824 C169.158862,48.5222393 169.593788,48.9571648 170.137445,48.9571648 C170.681102,48.9571648 171.116027,48.5222393 171.116027,47.9785824 C171.116027,47.4349255 170.681102,47 170.137445,47 C169.593788,47 169.158862,47.4349255 169.158862,47.9785824 C169.158862,47.9785824 169.158862,47.4349255 169.158862,47.9785824 Z M179.760172,60.95386 C179.760172,62.0230519 179.289002,62.4217336 178.256054,62.4217336 L178.256054,63.056 L182.5147,63.056 L182.5147,62.4217336 C181.517995,62.2767585 181.282411,61.841833 181.282411,60.8813725 L181.282411,51.4398646 C181.282411,51.3130113 181.209923,51.2405237 181.08307,51.2405237 L180.79312,51.2405237 C180.666266,51.2405237 180.593779,51.3311332 180.593779,51.4398646 L180.593779,52.0016433 C179.669562,51.4761084 178.709102,51.2405237 177.676153,51.2405237 C175.048479,51.2405237 173.308777,53.1252009 173.308777,55.8434853 C173.308777,57.6919187 174.323603,59.8121806 176.824424,59.8121806 C177.803007,59.8121806 178.527883,59.4678646 179.760172,58.3986727 C179.760172,58.3986727 178.527883,59.4678646 179.760172,58.3986727 L179.760172,60.95386 Z M179.760172,57.5831874 C178.817833,58.2536975 178.292298,58.4711603 177.603666,58.4711603 C175.972695,58.4711603 174.740406,56.948921 174.740406,54.9192686 C174.740406,53.1252009 175.791476,51.9110339 177.331837,51.9110339 C178.854077,51.9110339 179.760172,53.0345914 179.760172,54.9011467 C179.760172,54.9011467 179.760172,53.0345914 179.760172,54.9011467 L179.760172,57.5831874 Z M192.699205,58.5798916 C191.702501,58.7973544 191.466916,58.525526 191.466916,57.7100406 L191.466916,51.4398646 L188.386194,51.6392054 L188.386194,52.2915937 C189.636605,52.2915937 189.944677,52.4365688 189.944677,53.8681986 L189.944677,57.5650655 C189.074826,58.2536975 188.44056,58.5074041 187.643196,58.5074041 C186.555883,58.5074041 185.994104,57.8731377 185.994104,56.4958736 L185.994104,51.4398646 L183.022113,51.6392054 L183.022113,52.2915937 C184.14567,52.2915937 184.471865,52.4365688 184.471865,53.8681986 L184.471865,57.4200903 C184.471865,59.1235485 185.5773,59.7940587 186.918321,59.7940587 C187.987512,59.7940587 188.893607,59.3772551 189.944677,58.3986727 L189.944677,59.7940587 L192.699205,59.2866456 L192.699205,58.5798916 Z M200.980912,54.5749526 C200.980912,53.288298 199.966086,51.2405237 197.628361,51.2405237 C195.489977,51.2405237 193.840885,53.1252009 193.840885,55.6079007 C193.840885,58.0362348 195.41749,59.7940587 197.610239,59.7940587 C198.987503,59.7940587 200.20167,59.0873047 200.980912,57.818772 L200.600352,57.474456 C199.91172,58.0724786 199.186844,58.344307 198.335115,58.344307 C196.649779,58.344307 195.109418,57.0032867 195.200027,54.5749526 C195.200027,54.5749526 195.109418,57.0032867 195.200027,54.5749526 L200.980912,54.5749526 Z M195.308758,53.9225643 C195.471856,52.6902754 196.232975,51.9110339 197.284045,51.9110339 C198.280749,51.9110339 198.933138,52.6359097 199.078113,53.9225643 C199.078113,53.9225643 198.933138,52.6359097 199.078113,53.9225643 L195.308758,53.9225643 Z M195.308758,53.9225643" id="design-graphique" fill="#898989" sketch:type="MSShapeGroup"></path>
        <path d="M2.01,28.55 C2.46,27.32 3.09,26.33 3.51,26.33 C3.93,26.33 4.17,27.14 3.99,27.92 L1.65,38 L3.93,38 C4.98,31.4 8.55,26.72 9.33,26.72 C9.96,26.72 9.06,28.61 10.47,28.61 C11.19,28.61 11.7,27.77 11.7,26.6 C11.7,25.37 11.25,24.68 10.41,24.68 C8.76,24.68 7.23,26.87 5.28,30.98 L5.22,30.92 L6,27.62 C6.45,25.67 5.49,24.68 4.5,24.68 C3.3,24.68 2.04,26.15 1.17,28.55 C1.17,28.55 2.04,26.15 1.17,28.55 L2.01,28.55 Z M11.37,34.04 C11.37,36.86 13.05,38.33 15.36,38.33 C19.41,38.33 23.25,33.32 23.25,29.09 C23.25,26.42 21.93,24.68 19.56,24.68 C15.54,24.68 11.37,29.57 11.37,34.04 C11.37,34.04 11.37,29.57 11.37,34.04 Z M13.89,33.98 C13.89,30.95 15.63,25.82 18.63,25.82 C19.86,25.82 20.85,27.17 20.85,29.24 C20.85,31.34 19.32,37.19 16.14,37.19 C14.67,37.19 13.89,36.05 13.89,33.98 C13.89,33.98 13.89,36.05 13.89,33.98 Z M25.8,28.61 C26.67,27.32 27.6,26.42 28.11,26.42 C28.53,26.42 28.65,26.84 28.38,27.65 L26.04,34.58 C25.2,37.07 25.98,38.3 27.57,38.3 C29.73,38.3 32.4,35.99 35.07,30.98 L35.13,31.04 L33.93,34.94 C33.3,37.01 33.48,38.3 35.13,38.3 C36.54,38.3 38.04,36.83 39.48,34.37 L38.49,34.37 C37.83,35.54 36.93,36.44 36.42,36.44 C36.06,36.44 35.79,36.02 36.03,35.21 L39.21,24.86 L36.99,24.86 C34.98,30.59 30.87,36.83 28.65,36.83 C28.02,36.83 27.96,36.17 28.29,35.09 L30.69,27.17 C31.23,25.34 30.33,24.68 29.34,24.68 C28.08,24.68 26.19,26.33 24.78,28.61 C24.78,28.61 26.19,26.33 24.78,28.61 L25.8,28.61 Z M42.54,30.32 C42.54,31.52 43.11,32.42 44.34,33.11 C42.18,33.92 41.46,34.88 41.46,35.96 C41.46,36.53 41.73,37.01 42.27,37.4 C39.87,38.57 38.91,39.59 38.91,40.76 C38.91,41.93 40.02,43.73 44.13,43.73 C48.99,43.73 50.49,41.78 50.49,39.92 C50.49,35.72 43.47,36.71 43.47,35 C43.47,34.55 43.89,34.16 45.51,33.53 C46.11,33.53 46.47,33.59 46.77,33.59 C49.71,33.59 52.35,31.1 52.35,28.34 C52.35,27.41 52.08,26.63 51.48,25.97 C52.95,25.67 52.59,27.11 53.76,27.11 C54.24,27.11 54.36,26.84 54.36,25.94 C54.36,25.1 53.85,24.68 52.86,24.68 C52.65,24.68 52.32,24.71 51.9,24.77 C51.48,24.83 50.97,24.95 50.37,25.1 C49.68,24.8 49.14,24.68 48.36,24.68 C44.19,24.68 42.54,28.49 42.54,30.32 C42.54,30.32 42.54,28.49 42.54,30.32 Z M47.88,25.79 C49.14,25.79 50.04,26.75 50.04,28.1 C50.04,30.53 48.54,32.48 46.71,32.48 C45.57,32.48 44.79,31.58 44.79,30.23 C44.79,28.34 45.93,25.79 47.88,25.79 C47.88,25.79 45.93,25.79 47.88,25.79 Z M43.38,38 C45.21,38.6 48.57,38.57 48.57,40.7 C48.57,41.99 47.13,42.71 44.55,42.71 C42.06,42.71 40.65,41.99 40.65,40.7 C40.65,39.62 41.4,38.9 43.38,38 C43.38,38 41.4,38.9 43.38,38 Z M62.37,33.83 C61.56,35.27 59.91,36.26 58.35,36.26 C56.73,36.26 55.74,35.18 56.07,32.69 C62.16,31.55 64.02,29 64.02,26.99 C64.02,25.58 63.09,24.68 61.68,24.68 C58.47,24.68 53.76,30.05 53.76,34.49 C53.76,36.86 55.2,38.3 57.48,38.3 C59.82,38.3 62.1,36.62 63.54,33.83 C63.54,33.83 62.1,36.62 63.54,33.83 L62.37,33.83 Z M62.13,27.62 C62.13,29.15 60.36,31.01 56.25,31.64 C57.36,28.07 58.92,26.12 60.69,26.12 C61.5,26.12 62.13,26.78 62.13,27.62 C62.13,27.62 62.13,26.78 62.13,27.62 Z M74.58,28.55 C75.03,27.32 75.66,26.33 76.08,26.33 C76.5,26.33 76.74,27.14 76.56,27.92 L74.22,38 L76.5,38 C77.55,31.4 81.12,26.72 81.9,26.72 C82.53,26.72 81.63,28.61 83.04,28.61 C83.76,28.61 84.27,27.77 84.27,26.6 C84.27,25.37 83.82,24.68 82.98,24.68 C81.33,24.68 79.8,26.87 77.85,30.98 L77.79,30.92 L78.57,27.62 C79.02,25.67 78.06,24.68 77.07,24.68 C75.87,24.68 74.61,26.15 73.74,28.55 C73.74,28.55 74.61,26.15 73.74,28.55 L74.58,28.55 Z M83.94,34.04 C83.94,36.86 85.62,38.33 87.93,38.33 C91.98,38.33 95.82,33.32 95.82,29.09 C95.82,26.42 94.5,24.68 92.13,24.68 C88.11,24.68 83.94,29.57 83.94,34.04 C83.94,34.04 83.94,29.57 83.94,34.04 Z M86.46,33.98 C86.46,30.95 88.2,25.82 91.2,25.82 C92.43,25.82 93.42,27.17 93.42,29.24 C93.42,31.34 91.89,37.19 88.71,37.19 C87.24,37.19 86.46,36.05 86.46,33.98 C86.46,33.98 86.46,36.05 86.46,33.98 Z M100.8,27.23 C100.8,26.39 101.37,25.79 102.21,25.79 C103.95,25.79 103.59,27.83 104.94,27.83 C105.6,27.83 106.02,27.35 106.02,26.6 C106.02,25.43 104.91,24.68 103.2,24.68 C100.98,24.68 99.15,25.94 99.15,28.49 C99.15,31.13 102.75,33.59 102.75,35.6 C102.75,36.41 101.79,37.19 100.8,37.19 C99.03,37.19 99.48,34.85 97.92,34.85 C97.29,34.85 96.81,35.42 96.81,36.14 C96.81,37.37 98.22,38.3 100.05,38.3 C102.63,38.3 104.52,36.68 104.52,34.43 C104.52,31.49 100.8,28.88 100.8,27.23 C100.8,27.23 100.8,28.88 100.8,27.23 Z M116.01,33.83 C115.2,35.27 113.55,36.26 111.99,36.26 C110.37,36.26 109.38,35.18 109.71,32.69 C115.8,31.55 117.66,29 117.66,26.99 C117.66,25.58 116.73,24.68 115.32,24.68 C112.11,24.68 107.4,30.05 107.4,34.49 C107.4,36.86 108.84,38.3 111.12,38.3 C113.46,38.3 115.74,36.62 117.18,33.83 C117.18,33.83 115.74,36.62 117.18,33.83 L116.01,33.83 Z M115.77,27.62 C115.77,29.15 114,31.01 109.89,31.64 C111,28.07 112.56,26.12 114.33,26.12 C115.14,26.12 115.77,26.78 115.77,27.62 C115.77,27.62 115.77,26.78 115.77,27.62 Z M115.77,27.62" id="rouge-rose" fill="#000000" sketch:type="MSShapeGroup"></path>
    </g>
</svg>