<?xml version="1.0" standalone="no"?>
<!DOCTYPE svg PUBLIC "-//W3C//DTD SVG 20010904//EN"
 "http://www.w3.org/TR/2001/REC-SVG-20010904/DTD/svg10.dtd">
<svg version="1.0" xmlns="http://www.w3.org/2000/svg"
 width="260.000000pt" height="260.000000pt" viewBox="0 0 260.000000 260.000000"
 preserveAspectRatio="xMidYMid meet">
<metadata>
Created by potrace 1.14, written by Peter Selinger 2001-2017
</metadata>
<g transform="translate(0.000000,260.000000) scale(0.100000,-0.100000)"
fill="#000000" stroke="none">
<path d="M1186 2441 c-4 -5 -3 -16 0 -24 7 -18 -12 -32 -22 -16 -4 8 -9 7 -16
-2 -6 -10 -7 -7 -3 9 7 23 -8 31 -21 11 -4 -8 -9 -7 -16 2 -8 11 -9 11 -5 -1
2 -8 10 -14 16 -12 6 1 11 -2 11 -8 0 -13 -6 -13 -30 0 -13 7 -21 7 -26 -2 -4
-6 -3 -8 3 -5 6 4 17 -1 24 -11 12 -15 12 -16 -1 -6 -8 6 -29 10 -46 9 -23 0
-30 3 -29 15 1 8 0 10 -2 3 -2 -7 -12 -9 -21 -7 -13 5 -14 4 -3 -4 8 -5 10
-15 6 -22 -6 -10 -10 -9 -17 4 -5 9 -14 16 -20 16 -6 0 -6 -6 2 -15 11 -14 10
-14 -15 -5 -25 10 -27 9 -23 -12 4 -20 0 -23 -30 -24 -22 -1 -29 1 -21 7 8 5
9 9 3 9 -5 0 -19 -7 -30 -16 -10 -8 -14 -13 -7 -10 6 4 15 1 19 -5 4 -7 3 -9
-4 -5 -6 3 -18 -1 -26 -10 -9 -9 -16 -11 -16 -4 0 6 -5 8 -12 4 -7 -5 -8 -3
-3 5 6 10 3 11 -12 2 -11 -6 -24 -7 -28 -3 -5 4 -5 1 -1 -6 4 -7 13 -9 19 -6
7 4 4 -1 -5 -12 -14 -15 -20 -16 -30 -5 -11 10 -9 11 7 5 11 -4 17 -4 13 0 -3
4 -17 9 -31 10 -21 3 -24 -1 -22 -20 1 -13 -2 -24 -7 -24 -5 0 -7 -4 -4 -8 2
-4 -7 -8 -22 -9 -26 -2 -26 -1 -5 7 15 6 21 15 17 25 -3 8 -8 15 -11 15 -3 0
-3 -7 1 -15 3 -9 0 -15 -10 -15 -9 0 -12 5 -8 13 4 6 3 9 -1 4 -14 -12 -16
-47 -2 -47 8 0 7 -4 -3 -10 -8 -5 -19 -10 -25 -10 -5 0 -3 5 5 10 9 6 11 10 3
10 -7 0 -10 7 -6 18 3 9 3 14 -1 10 -7 -5 -13 -26 -15 -50 -1 -12 -31 -9 -31
2 0 6 -5 10 -10 10 -6 0 -9 -6 -8 -12 2 -7 -3 -12 -10 -10 -8 1 -11 -2 -8 -7
4 -5 2 -12 -4 -16 -7 -4 -7 -12 0 -25 16 -30 11 -37 -7 -10 -10 14 -16 30 -15
35 2 6 0 6 -5 2 -4 -5 -8 -12 -8 -15 -1 -4 -6 -17 -13 -29 -7 -13 -10 -23 -7
-23 4 0 0 -7 -9 -15 -17 -17 -30 -20 -21 -5 3 6 1 10 -4 10 -12 0 -10 -28 3
-49 6 -9 5 -12 -1 -8 -6 4 -14 0 -17 -9 -5 -14 -9 -13 -24 6 -17 21 -18 21
-18 2 0 -11 4 -18 8 -16 4 3 8 -2 8 -10 0 -20 -22 -16 -32 4 -4 8 -6 -3 -4
-26 1 -27 -2 -41 -11 -41 -6 0 -9 5 -6 10 3 6 1 7 -6 3 -8 -6 -9 -12 -2 -20 6
-7 8 -16 4 -19 -3 -4 0 -7 7 -7 7 0 11 -2 8 -5 -3 -3 -13 -2 -22 1 -14 5 -15
9 -4 15 9 6 9 9 1 9 -18 0 -36 -37 -21 -46 7 -4 8 -3 4 4 -4 8 -2 10 7 6 11
-4 8 -12 -14 -36 -15 -17 -28 -34 -27 -37 2 -19 -4 -30 -18 -35 -13 -5 -14 -4
-6 7 7 8 8 18 4 22 -4 5 -2 5 5 2 7 -5 10 -1 9 10 -3 20 -21 28 -31 14 -4 -7
1 -8 12 -4 16 6 16 5 4 -10 -7 -9 -10 -17 -5 -17 5 0 2 -6 -7 -13 -11 -8 -14
-18 -8 -32 4 -11 8 -14 8 -7 1 6 9 12 18 12 15 0 15 -2 -2 -14 -10 -7 -28 -11
-39 -8 -18 5 -18 4 -5 -10 7 -9 17 -14 21 -11 5 2 8 -1 8 -7 0 -7 -6 -10 -12
-7 -7 3 -21 8 -30 12 -11 4 -18 3 -18 -5 0 -6 4 -9 9 -6 5 3 14 -1 20 -8 9
-11 9 -16 0 -22 -7 -4 -9 -3 -6 3 3 5 0 10 -7 10 -8 0 -11 -8 -8 -19 3 -12 0
-17 -9 -15 -8 2 -11 2 -6 0 4 -3 7 -14 7 -24 0 -13 4 -18 12 -13 6 4 4 -3 -5
-15 -8 -13 -13 -30 -10 -39 5 -10 2 -13 -6 -8 -7 5 -10 14 -7 22 5 14 -7 27
-17 17 -4 -3 1 -19 9 -35 12 -23 13 -33 4 -42 -8 -8 -10 -7 -5 5 4 10 1 20 -5
24 -7 4 -9 -3 -5 -24 4 -21 1 -30 -7 -27 -7 1 -10 1 -5 -1 4 -3 7 -11 7 -19 0
-8 5 -14 12 -14 6 0 8 -3 4 -7 -4 -5 -15 1 -23 12 -13 16 -15 17 -10 3 4 -11
1 -18 -6 -18 -7 0 -4 -5 6 -11 21 -12 23 -33 3 -26 -10 4 -13 1 -9 -9 3 -8 12
-13 19 -10 8 3 14 1 14 -4 0 -6 -7 -10 -15 -10 -8 0 -15 -5 -15 -11 0 -6 9 -9
19 -6 13 3 18 0 16 -12 -2 -9 -4 -19 -4 -23 -1 -5 -8 -8 -16 -8 -22 0 -18 -17
5 -23 24 -6 17 -37 -8 -37 -13 0 -12 3 4 15 17 13 17 14 2 15 -16 0 -20 -6
-17 -26 0 -4 -5 -11 -13 -15 -10 -7 -10 -9 0 -9 7 0 10 -4 7 -10 -3 -6 1 -7 9
-4 25 9 19 -12 -6 -25 l-23 -11 23 6 c12 3 22 1 22 -5 0 -6 -6 -11 -14 -11 -8
0 -18 -5 -22 -11 -4 -8 0 -9 15 -4 19 6 23 1 20 -21 0 -4 5 -11 13 -15 8 -6 9
-9 1 -9 -15 0 -10 -29 8 -42 12 -8 12 -9 -1 -5 -19 6 -44 -39 -28 -50 6 -3 8
-1 5 4 -4 6 -1 16 7 22 10 9 15 8 20 -4 4 -10 2 -14 -5 -9 -7 4 -10 1 -7 -7 3
-8 12 -12 19 -11 8 2 11 0 7 -4 -4 -4 -3 -13 4 -21 6 -7 8 -16 4 -20 -3 -3 -6
-1 -6 6 0 7 -5 9 -12 5 -6 -4 -8 -3 -5 3 4 6 0 13 -8 16 -12 5 -12 2 -3 -18 6
-14 16 -25 21 -25 5 0 4 -7 -3 -15 -8 -10 -9 -15 -2 -15 6 0 16 8 22 18 11 16
11 16 6 -2 -5 -14 -2 -17 9 -12 10 3 13 2 10 -5 -4 -6 -13 -8 -21 -5 -8 3 -14
-1 -14 -10 0 -11 6 -15 18 -12 13 4 18 -1 18 -18 0 -12 -3 -21 -8 -18 -4 3 -6
-9 -5 -25 1 -16 5 -27 9 -24 12 7 9 -12 -3 -24 -8 -8 -8 -13 0 -18 6 -3 10 -3
9 2 -2 4 1 10 6 13 5 3 11 -6 13 -20 3 -14 6 -31 7 -38 3 -17 26 -39 26 -25 0
6 7 14 16 17 14 5 15 4 5 -8 -8 -9 -8 -15 -1 -18 6 -2 11 -17 13 -34 1 -22 6
-30 16 -26 10 4 12 1 6 -8 -5 -9 -4 -11 3 -6 7 4 12 1 12 -7 0 -8 7 -18 16
-21 12 -4 8 5 -10 29 -15 19 -22 35 -17 35 6 0 11 -5 11 -11 0 -5 5 -7 10 -4
6 4 10 3 9 -2 -3 -19 2 -34 10 -29 5 3 7 -9 6 -26 -3 -31 -2 -31 12 -13 15 19
15 19 8 -4 -5 -16 -4 -21 4 -17 7 5 9 1 5 -8 -3 -9 -11 -13 -18 -9 -6 3 -7 2
-3 -2 11 -13 36 -15 64 -4 16 6 22 5 18 -1 -3 -6 -12 -10 -20 -10 -8 0 -16 -4
-19 -8 -7 -12 27 -11 42 1 10 8 12 7 10 -4 -2 -8 2 -13 9 -12 7 2 10 -6 8 -17
-2 -13 2 -20 11 -20 8 0 14 -4 14 -9 0 -5 -10 -7 -23 -5 -20 4 -20 4 -2 -5 12
-5 27 -5 38 1 10 5 21 7 25 4 3 -3 0 -6 -7 -6 -7 0 -9 -5 -5 -12 4 -6 3 -8 -4
-4 -6 3 -14 2 -17 -4 -4 -6 -1 -9 7 -8 7 2 12 -2 11 -9 -2 -7 3 -10 10 -7 13
5 69 -19 64 -27 -1 -2 2 -1 7 3 13 10 36 -24 25 -38 -5 -7 -4 -11 6 -11 8 0
12 4 9 9 -10 16 16 8 34 -10 17 -17 20 -18 30 -3 10 15 11 14 6 0 -3 -10 0
-20 5 -24 6 -3 9 -10 7 -14 -3 -4 8 -6 25 -5 16 1 29 -3 29 -9 0 -7 4 -6 10 3
5 8 12 12 15 8 3 -3 -1 -13 -10 -22 -20 -19 -12 -21 15 -4 17 11 22 10 30 -2
5 -8 6 -18 3 -24 -3 -5 -1 -6 6 -2 6 4 9 17 6 29 -2 12 -2 16 1 9 3 -6 10 -10
15 -6 5 3 9 0 9 -6 0 -6 4 -8 10 -5 6 3 7 -1 4 -10 -4 -9 -3 -15 2 -14 23 4
45 -2 39 -10 -3 -6 4 -8 16 -6 16 3 19 1 14 -13 -5 -13 -3 -14 5 -5 9 8 9 16
1 30 -6 10 -11 13 -11 5 0 -14 -20 -7 -20 8 0 12 33 5 38 -8 2 -7 8 -9 14 -6
6 4 8 -2 4 -17 -3 -13 -3 -18 0 -11 3 6 10 12 15 12 6 0 7 -6 3 -12 -6 -10 -5
-10 8 -1 15 13 28 8 28 -9 0 -5 -5 -6 -12 -2 -7 4 -8 3 -4 -5 4 -6 12 -9 17
-6 12 8 12 35 -1 36 -5 1 -14 2 -19 3 -21 3 -20 13 1 12 13 0 28 -10 35 -21 7
-11 12 -14 13 -7 0 6 5 12 11 12 5 0 7 -4 4 -10 -3 -5 -1 -10 5 -10 6 0 9 -3
6 -8 -2 -4 9 -8 25 -8 26 -2 29 1 24 20 -5 17 -4 18 4 6 6 -8 11 -11 11 -6 0
4 11 1 25 -8 14 -9 25 -12 25 -6 0 5 6 10 14 10 8 0 17 6 19 13 4 9 6 9 6 0 1
-7 8 -13 16 -13 8 0 15 6 15 13 0 9 2 9 8 0 8 -12 30 -12 65 2 9 4 17 3 17 -2
0 -5 -6 -10 -12 -11 -22 -1 -58 -11 -70 -18 -7 -5 -8 -3 -3 6 5 8 4 11 -3 6
-6 -4 -8 -14 -5 -23 4 -11 8 -13 11 -5 2 7 8 10 13 6 5 -3 9 0 9 7 0 7 3 9 6
6 4 -3 15 -2 25 3 13 8 21 6 29 -7 10 -17 10 -17 8 1 -2 10 3 21 10 23 8 3 10
-2 6 -14 -5 -17 -5 -17 6 1 10 14 9 20 -1 28 -11 8 -11 9 1 5 9 -2 14 -14 12
-28 -1 -13 1 -19 5 -14 5 6 15 11 23 13 8 2 17 8 18 13 2 5 8 9 13 9 6 0 8 -4
5 -9 -3 -5 1 -11 9 -14 9 -4 12 -1 9 8 -6 14 12 15 32 2 17 -10 35 15 24 33
-5 8 -12 11 -17 7 -4 -5 -1 -12 6 -16 9 -6 10 -11 2 -15 -6 -4 -11 -2 -11 4 0
6 -11 8 -23 6 -13 -2 -30 0 -38 5 -10 6 -7 8 11 5 14 -2 33 3 42 11 15 13 19
13 37 1 12 -8 18 -19 13 -24 -4 -4 1 -2 10 5 9 7 23 9 29 5 7 -4 9 -3 6 3 -4
6 0 13 8 17 8 3 17 1 20 -5 4 -5 11 -7 16 -3 5 3 7 10 4 15 -5 8 10 13 18 7 2
-2 15 5 29 14 26 17 28 17 38 0 8 -13 10 -13 9 -2 -1 8 1 23 6 34 5 12 3 21
-6 28 -11 8 -10 9 4 4 10 -3 21 -6 23 -6 3 0 3 -4 0 -9 -4 -5 2 -8 11 -7 13 2
18 12 18 34 -1 17 3 28 8 25 4 -3 6 -11 3 -18 -5 -14 18 -14 31 0 4 4 2 5 -4
1 -7 -4 -13 -2 -13 3 0 6 5 11 11 11 5 0 7 5 3 12 -4 7 -3 8 5 4 6 -4 15 2 21
16 8 18 10 18 6 3 -2 -11 -6 -27 -8 -35 -3 -8 -3 -12 -1 -7 3 4 9 7 14 7 6 0
7 -5 3 -12 -4 -7 -3 -8 5 -4 9 6 9 11 1 21 -7 9 -8 15 -1 19 6 4 8 14 5 24 -5
15 -5 15 6 -1 6 -9 8 -23 5 -30 -4 -6 -1 -5 7 4 7 9 20 14 28 12 13 -4 13 -3
0 6 -13 10 -8 15 13 12 4 0 6 2 6 6 -3 20 2 26 12 13 8 -12 9 -12 7 5 -2 12 3
20 12 20 8 0 14 9 13 18 0 12 4 16 14 13 8 -3 12 -2 9 3 -3 5 1 12 10 15 9 4
12 11 7 18 -16 27 -12 43 7 20 25 -30 34 -28 14 3 -9 15 -13 25 -8 24 5 -1 20
-1 34 0 19 1 21 4 11 10 -8 5 -21 7 -30 4 -12 -3 -12 -2 2 7 9 6 15 15 13 19
-3 4 1 8 9 8 12 0 12 -3 2 -16 -11 -14 -10 -14 6 -2 11 9 16 22 13 34 -4 18
-4 18 15 1 10 -9 22 -14 26 -11 3 4 1 7 -6 7 -8 0 -11 12 -9 38 4 41 21 48 52
23 17 -14 17 -12 -2 13 -22 28 -21 47 1 45 9 0 8 -2 -1 -6 -13 -5 -7 -23 8
-23 14 0 5 29 -16 46 -18 14 -18 14 6 3 14 -7 29 -17 33 -23 6 -7 7 -5 4 6 -3
9 -3 19 1 21 4 2 2 2 -5 1 -6 -2 -17 5 -25 14 -12 16 -11 16 6 2 18 -14 19
-13 14 1 -4 9 -1 22 5 28 7 7 13 16 13 21 1 6 2 15 3 20 0 6 9 10 19 10 15 1
15 2 -2 15 -12 9 -15 15 -7 15 10 0 11 3 2 14 -9 11 -9 16 0 22 7 4 9 3 5 -4
-3 -6 -2 -13 4 -17 6 -4 8 -10 5 -15 -3 -4 2 -10 10 -14 8 -3 17 0 21 6 4 7 3
8 -4 4 -7 -4 -12 -1 -13 6 0 7 -2 21 -4 31 -2 9 1 14 7 11 15 -9 5 29 -12 44
-9 8 -10 11 -2 7 8 -4 24 2 37 15 14 13 29 19 36 15 8 -6 10 -4 5 4 -5 7 -14
10 -20 8 -7 -3 -19 -1 -27 4 -12 7 -12 9 0 9 11 0 11 3 0 17 -11 15 -11 16 0
6 7 -6 21 -9 30 -6 14 4 14 3 1 -6 -9 -7 -10 -11 -3 -11 22 0 24 19 3 30 -15
8 -18 15 -12 23 5 7 8 23 6 36 -4 20 -1 23 17 18 11 -3 19 -3 16 0 -3 3 -2 16
4 30 6 16 6 22 -1 18 -14 -9 -12 8 3 25 9 11 8 11 -7 0 -18 -14 -19 -13 -12 5
5 11 11 28 13 38 3 9 10 17 16 17 6 0 7 3 4 6 -4 4 -13 1 -21 -5 -11 -9 -16
-9 -22 0 -4 8 -3 9 4 5 9 -5 11 3 8 26 -3 21 -9 32 -17 30 -10 -3 -9 1 2 15
18 21 18 49 0 45 -7 -1 -10 2 -6 8 5 7 11 8 19 1 8 -7 16 -4 26 12 12 20 12
21 -3 9 -10 -9 -17 -10 -22 -2 -3 6 -10 8 -15 5 -5 -3 -12 -1 -15 5 -4 6 -1 9
7 8 7 -2 13 4 13 12 0 8 -5 14 -12 13 -8 -2 -10 4 -6 14 6 14 8 14 20 -3 7
-10 11 -24 9 -31 -3 -7 -1 -13 4 -13 6 0 10 9 10 21 0 13 4 18 12 13 7 -4 8
-3 4 5 -4 6 -12 9 -17 6 -5 -4 -13 5 -19 19 -5 14 -14 26 -20 26 -6 0 -8 -6
-4 -12 4 -7 3 -10 -1 -5 -17 15 -12 43 9 45 14 1 17 -1 8 -7 -10 -6 -10 -10 2
-20 11 -9 16 -9 22 0 4 8 3 9 -4 5 -16 -10 -15 7 1 23 6 7 8 12 2 11 -22 -5
-32 1 -43 25 -11 23 -10 24 8 13 10 -7 17 -16 14 -20 -3 -4 2 -5 12 -1 15 5
14 7 -2 16 -29 15 -30 17 -14 28 12 8 10 9 -7 4 -12 -3 -24 -1 -28 5 -3 5 1
10 9 10 9 0 16 5 16 10 0 6 -12 8 -27 5 -16 -3 -21 -2 -13 1 8 4 21 11 28 17
17 14 -5 39 -28 32 -11 -3 -20 1 -24 10 -3 9 -11 13 -17 9 -8 -4 -9 -3 -5 5 6
8 12 9 20 2 7 -6 17 -7 21 -3 5 4 5 1 0 -6 -6 -11 -3 -12 14 -3 11 7 21 14 21
17 0 3 -4 3 -9 0 -17 -11 -40 5 -36 24 3 13 -1 17 -12 13 -12 -5 -12 -7 -1
-15 10 -8 10 -9 -2 -5 -8 2 -14 14 -14 25 1 19 -6 26 -27 24 -3 -1 -6 5 -6 12
0 10 6 10 24 2 13 -6 21 -17 18 -23 -7 -20 3 -15 15 7 6 11 7 20 3 19 -24 -4
-44 3 -40 14 2 6 10 11 16 9 7 -1 10 2 6 8 -4 7 -11 7 -18 2 -15 -12 -47 -11
-47 1 0 5 7 7 15 4 23 -9 28 11 6 22 -23 13 -42 14 -23 2 11 -7 11 -9 -1 -14
-10 -4 -14 0 -12 11 3 23 -14 54 -26 47 -5 -4 -6 -11 -3 -17 4 -7 2 -8 -5 -4
-9 6 -9 11 0 22 8 10 15 11 24 4 8 -7 12 -5 12 5 0 8 -4 12 -8 10 -3 -3 -12 2
-19 10 -9 11 -10 19 -1 28 11 14 9 15 -43 19 -20 2 -23 7 -21 29 4 28 -19 48
-31 27 -4 -6 -3 -8 4 -4 6 3 13 3 16 -2 3 -5 -3 -9 -12 -9 -26 0 -41 27 -31
57 l9 25 -20 -24 c-22 -25 -26 -21 -10 9 7 13 7 21 -2 26 -6 4 -8 3 -5 -3 4
-6 0 -16 -8 -23 -8 -7 -12 -17 -8 -24 3 -6 2 -7 -2 -3 -12 10 -15 38 -4 31 5
-3 8 6 7 20 -1 15 -6 26 -11 26 -5 0 -6 -7 -3 -16 3 -8 2 -13 -3 -9 -5 3 -12
-1 -15 -7 -3 -7 -3 2 0 20 3 19 1 32 -5 32 -6 0 -8 -6 -5 -14 3 -8 -1 -17 -8
-22 -7 -4 -10 -4 -6 1 4 4 3 14 -3 22 -6 7 -8 13 -4 13 5 0 0 9 -9 19 -10 11
-15 25 -10 32 4 8 3 10 -5 5 -6 -4 -10 -15 -9 -23 2 -9 -2 -18 -8 -20 -7 -2
-10 6 -9 22 2 14 0 23 -5 20 -11 -7 -41 5 -35 14 2 4 -1 8 -8 9 -7 0 -23 3
-35 6 -19 4 -23 2 -17 -12 4 -12 3 -14 -5 -6 -13 13 -2 46 13 37 6 -3 7 -1 3
6 -6 9 -11 9 -22 0 -8 -6 -14 -8 -14 -3 0 5 -8 0 -16 -11 -16 -20 -16 -20 -9
3 4 13 2 22 -5 22 -6 0 -8 4 -5 10 3 6 -1 7 -10 3 -12 -4 -13 -8 -5 -13 10 -6
10 -12 0 -26 -9 -16 -11 -16 -6 -2 3 10 -2 21 -11 26 -13 8 -12 11 8 26 32 22
17 20 -22 -3 -28 -17 -29 -20 -12 -30 10 -6 13 -11 7 -11 -6 0 -17 6 -23 14
-10 11 -7 17 11 30 12 9 19 16 15 16 -13 0 -51 -22 -58 -33 -4 -5 -9 -5 -13 2
-4 6 -2 11 4 11 6 0 8 5 4 12 -4 6 -3 8 2 5 6 -3 16 -2 24 3 11 7 6 9 -15 7
-21 -1 -29 2 -27 12 3 12 0 12 -12 1 -9 -7 -16 -20 -17 -29 0 -10 -4 -7 -11 9
-6 14 -10 29 -9 33 1 5 -3 6 -9 2 -6 -3 -8 -11 -5 -16 6 -9 5 -10 -32 -14 -27
-3 -28 -1 -6 16 11 10 14 10 9 2 -4 -8 -2 -13 4 -13 7 0 10 6 7 13 -2 6 -11
10 -18 9 -56 -15 -66 -11 -60 21 1 5 -3 6 -9 2 -5 -3 -10 2 -11 12 0 14 -2 13
-10 -6 -8 -20 -11 -22 -27 -10 -15 12 -16 12 -4 -2 10 -14 9 -19 -5 -30 -16
-13 -17 -12 -5 2 10 14 10 18 -4 23 -23 9 -24 8 -17 -11 6 -15 5 -16 -9 -3 -9
8 -14 18 -11 23 7 12 -12 8 -25 -5 -16 -16 -16 4 1 22 6 7 -2 4 -20 -8 -36
-25 -51 -28 -34 -8 9 11 9 16 0 22 -7 4 -9 3 -6 -3 4 -6 0 -13 -8 -17 -8 -3
-17 -1 -20 4 -7 11 -35 2 -35 -12 0 -6 6 -5 15 2 8 7 15 9 15 4 0 -5 -13 -18
-28 -29 -26 -18 -26 -18 -12 0 14 17 13 18 -4 12 -16 -6 -17 -5 -6 8 7 9 10
18 6 22 -3 3 -6 1 -6 -5 0 -7 -5 -12 -11 -12 -6 0 -9 7 -5 15 6 16 1 20 -8 6z
m144 -36 c0 -8 -4 -15 -10 -15 -5 0 -7 7 -4 15 4 8 8 15 10 15 2 0 4 -7 4 -15z
m141 -8 c-13 -13 -26 -3 -16 12 3 6 11 8 17 5 6 -4 6 -10 -1 -17z m-187 5 c3
-5 -1 -9 -9 -9 -8 0 -12 4 -9 9 3 4 7 8 9 8 2 0 6 -4 9 -8z m361 -31 c3 -5 2
-12 -3 -15 -5 -3 -9 1 -9 9 0 17 3 19 12 6z m269 -134 c-8 -4 -22 -3 -31 2
-14 8 -15 10 -3 11 13 0 13 2 0 9 -8 6 -17 8 -20 6 -4 -2 -7 2 -7 9 0 9 11 6
38 -8 29 -16 34 -23 23 -29z m-1174 28 c7 -9 8 -15 2 -15 -5 0 -12 7 -16 15
-3 8 -4 15 -2 15 2 0 9 -7 16 -15z m1229 -56 c-12 -7 -11 -9 1 -10 10 0 11 -2
2 -6 -6 -2 -9 -10 -6 -15 4 -6 2 -8 -4 -5 -5 4 -9 15 -7 25 2 9 4 21 4 25 1 5
6 5 12 1 8 -4 7 -9 -2 -15z m-1380 -50 c-12 -10 -26 -16 -31 -13 -14 9 22 44
38 37 11 -4 10 -9 -7 -24z m-57 -37 c4 -12 -1 -18 -13 -18 -14 0 -15 4 -8 18
5 10 11 18 13 18 2 0 6 -8 8 -18z m1589 -85 c-10 -9 -11 -8 -5 6 3 10 9 15 12
12 3 -3 0 -11 -7 -18z m79 -23 c0 -2 -7 -4 -15 -4 -8 0 -15 4 -15 10 0 5 7 7
15 4 8 -4 15 -8 15 -10z m0 -29 c7 -9 8 -15 2 -15 -5 0 -12 7 -16 15 -3 8 -4
15 -2 15 2 0 9 -7 16 -15z m-1790 -5 c0 -5 -5 -10 -11 -10 -5 0 -7 5 -4 10 3
6 8 10 11 10 2 0 4 -4 4 -10z m1961 -265 c0 -6 -10 -11 -21 -11 -16 -1 -18 1
-9 13 13 15 31 14 30 -2z m-2140 -68 c-10 -9 -11 -8 -5 6 3 10 9 15 12 12 3
-3 0 -11 -7 -18z m-11 -121 c0 -2 -8 -10 -17 -17 -16 -13 -17 -12 -4 4 13 16
21 21 21 13z m-35 -84 c-3 -3 -11 0 -18 7 -9 10 -8 11 6 5 10 -3 15 -9 12 -12z
m20 -30 c-3 -3 -11 0 -18 7 -9 10 -8 11 6 5 10 -3 15 -9 12 -12z m2205 -144
c0 -6 -6 -5 -15 2 -8 7 -15 14 -15 16 0 2 7 1 15 -2 8 -4 15 -11 15 -16z m4
-78 c-6 -6 -10 -3 -10 10 0 13 4 16 10 10 7 -7 7 -13 0 -20z m-2146 -348 c-2
-20 4 -31 20 -35 16 -4 16 -5 0 -6 -10 0 -24 12 -33 29 -13 26 -13 29 0 24 8
-3 14 -9 13 -12z m37 -61 c-3 -5 -1 -13 5 -16 8 -5 7 -11 -1 -21 -22 -27 -29
-14 -20 39 0 4 6 7 12 7 5 0 8 -4 4 -9z m55 -96 c-7 -9 -15 -13 -19 -10 -3 3
1 10 9 15 21 14 24 12 10 -5z m103 -119 c3 -8 0 -17 -7 -19 -10 -4 -12 1 -9
14 6 23 9 24 16 5z m1624 -35 c0 -11 -6 -19 -12 -18 -5 1 -9 -9 -8 -23 1 -14
-1 -19 -3 -13 -4 8 -19 -1 -42 -25 -20 -21 -36 -36 -35 -33 2 2 -3 11 -10 20
-10 14 -10 14 4 4 13 -11 21 -4 55 39 21 29 38 56 37 60 -2 4 1 8 6 8 6 0 9
-9 8 -19z m-1484 -96 c-3 -9 -8 -14 -10 -11 -3 3 -2 9 2 15 9 16 15 13 8 -4z
m27 -26 c0 -6 -4 -7 -10 -4 -5 3 -10 11 -10 16 0 6 5 7 10 4 6 -3 10 -11 10
-16z m1228 -64 c-3 -3 -9 2 -12 12 -6 14 -5 15 5 6 7 -7 10 -15 7 -18z m-1113
5 c3 -6 -1 -7 -9 -4 -18 7 -21 14 -7 14 6 0 13 -4 16 -10z m61 -40 c8 0 14 -4
14 -10 0 -6 -10 -5 -25 2 -13 6 -21 16 -18 21 5 8 8 7 11 -1 2 -7 10 -12 18
-12z m1010 -7 c-2 -2 -7 -4 -10 -4 -3 1 -16 -4 -28 -11 -29 -15 -48 -19 -48
-8 0 8 24 21 48 26 8 1 16 5 19 8 3 3 10 3 15 0 5 -3 7 -8 4 -11z m-121 -23
c-3 -5 -12 -10 -18 -10 -7 0 -6 4 3 10 19 12 23 12 15 0z m22 -25 c0 -8 -4
-12 -9 -9 -4 3 -8 9 -8 15 0 5 4 9 8 9 5 0 9 -7 9 -15z m-29 0 c-2 -1 -12 -7
-24 -13 -15 -8 -21 -8 -21 1 0 7 11 13 24 13 14 1 23 1 21 -1z m-496 -53 c3
-12 0 -19 -9 -19 -9 0 -11 7 -7 20 4 14 3 17 -6 12 -9 -5 -11 -4 -6 4 9 14 22
7 28 -17z m213 18 c-3 -5 -12 -10 -18 -10 -7 0 -6 4 3 10 19 12 23 12 15 0z
m99 -15 c-4 -8 -8 -15 -10 -15 -2 0 -4 7 -4 15 0 8 4 15 10 15 5 0 7 -7 4 -15z
m-234 -5 c0 -5 -2 -10 -4 -10 -3 0 -8 5 -11 10 -3 6 -1 10 4 10 6 0 11 -4 11
-10z"/>
<path d="M569 2163 c-13 -16 -12 -17 4 -4 9 7 17 15 17 17 0 8 -8 3 -21 -13z"/>
<path d="M290 760 c0 -5 5 -10 11 -10 5 0 7 5 4 10 -3 6 -8 10 -11 10 -2 0 -4
-4 -4 -10z"/>
<path d="M1534 2425 c-5 -11 -10 -13 -19 -5 -8 7 -12 6 -12 -4 0 -19 27 -14
39 7 5 9 6 17 3 17 -3 0 -8 -7 -11 -15z"/>
<path d="M1052 2406 c-1 -15 1 -17 7 -7 5 7 15 17 22 22 10 6 8 8 -7 7 -12 -1
-21 -10 -22 -22z"/>
<path d="M1160 2421 c0 -6 4 -13 10 -16 6 -3 7 1 4 9 -7 18 -14 21 -14 7z"/>
<path d="M1613 2399 c-2 -23 3 -25 10 -4 4 8 3 16 -1 19 -4 3 -9 -4 -9 -15z"/>
<path d="M875 2379 c-3 -4 2 -6 10 -5 21 3 28 13 10 13 -9 0 -18 -4 -20 -8z"/>
<path d="M907 2363 c-4 -3 -7 -11 -7 -17 0 -6 5 -5 12 2 6 6 9 14 7 17 -3 3
-9 2 -12 -2z"/>
<path d="M835 2350 c-3 -6 1 -7 9 -4 18 7 21 14 7 14 -6 0 -13 -4 -16 -10z"/>
<path d="M812 2326 c7 -8 15 -12 17 -11 5 6 -10 25 -20 25 -5 0 -4 -6 3 -14z"/>
<path d="M2104 2122 c3 -5 1 -12 -6 -14 -8 -3 -9 -6 -1 -11 6 -4 13 0 17 8 3
8 0 17 -6 21 -6 4 -8 3 -4 -4z"/>
<path d="M2160 2060 c-13 -8 -13 -10 2 -10 9 0 20 5 23 10 8 13 -5 13 -25 0z"/>
<path d="M427 2045 c3 -8 9 -12 14 -9 12 7 11 11 -5 17 -10 4 -13 1 -9 -8z"/>
<path d="M2226 2002 c-3 -5 1 -9 9 -9 8 0 12 4 9 9 -3 4 -7 8 -9 8 -2 0 -6 -4
-9 -8z"/>
<path d="M2245 1940 c-3 -5 -1 -10 4 -10 6 0 11 5 11 10 0 6 -2 10 -4 10 -3 0
-8 -4 -11 -10z"/>
<path d="M309 1923 c-13 -16 -12 -17 4 -4 9 7 17 15 17 17 0 8 -8 3 -21 -13z"/>
<path d="M2270 1926 c0 -2 7 -7 16 -10 8 -3 12 -2 9 4 -6 10 -25 14 -25 6z"/>
<path d="M292 1884 c-7 -8 -8 -14 -3 -14 10 0 25 19 20 25 -2 1 -10 -3 -17
-11z"/>
<path d="M310 1865 c-7 -9 -10 -18 -7 -21 3 -3 10 4 17 15 13 25 8 27 -10 6z"/>
<path d="M2422 1390 c-9 -14 -8 -19 4 -24 9 -4 12 -2 8 5 -4 6 -1 15 6 19 7 4
8 10 3 13 -5 3 -14 -3 -21 -13z"/>
<path d="M150 1350 c0 -5 4 -10 9 -10 6 0 13 5 16 10 3 6 -1 10 -9 10 -9 0
-16 -4 -16 -10z"/>
<path d="M2425 1341 c-3 -5 -2 -12 3 -15 5 -3 9 1 9 9 0 17 -3 19 -12 6z"/>
<path d="M2430 1266 c0 -2 7 -7 16 -10 8 -3 12 -2 9 4 -6 10 -25 14 -25 6z"/>
<path d="M147 1143 c3 -7 8 -13 12 -13 4 0 8 6 8 13 0 8 -6 14 -13 14 -7 0
-10 -6 -7 -14z"/>
<path d="M2405 1143 c1 -10 -2 -24 -8 -30 -6 -9 -6 -13 2 -13 6 0 11 5 11 11
0 5 6 7 13 3 9 -6 9 -5 0 8 -7 8 -10 17 -7 20 3 3 1 9 -4 12 -6 3 -9 -2 -7
-11z"/>
<path d="M2435 1149 c-4 -6 -5 -12 -2 -15 2 -3 7 2 10 11 7 17 1 20 -8 4z"/>
<path d="M2381 1011 c-17 -11 -24 -41 -10 -41 5 0 9 4 9 9 0 5 7 17 16 25 17
17 8 21 -15 7z"/>
<path d="M2355 930 c3 -5 8 -10 11 -10 2 0 4 5 4 10 0 6 -5 10 -11 10 -5 0 -7
-4 -4 -10z"/>
<path d="M2359 873 c-13 -16 -12 -17 4 -4 16 13 21 21 13 21 -2 0 -10 -8 -17
-17z"/>
<path d="M2320 860 c-13 -8 -12 -10 3 -10 9 0 17 5 17 10 0 12 -1 12 -20 0z"/>
<path d="M2300 825 c-7 -8 -11 -15 -9 -16 37 -7 40 -7 29 6 -8 10 -7 14 2 18
8 3 8 6 2 6 -6 1 -17 -6 -24 -14z"/>
<path d="M2223 686 c0 -11 1 -15 4 -7 5 11 7 11 14 0 7 -11 9 -11 9 2 0 26
-26 31 -27 5z"/>
<path d="M289 683 c-13 -16 -12 -17 4 -4 16 13 21 21 13 21 -2 0 -10 -8 -17
-17z"/>
<path d="M2190 599 c0 -5 5 -7 10 -4 6 3 10 8 10 11 0 2 -4 4 -10 4 -5 0 -10
-5 -10 -11z"/>
<path d="M2146 558 c3 -5 10 -6 15 -3 13 9 11 12 -6 12 -8 0 -12 -4 -9 -9z"/>
<path d="M490 500 c0 -5 5 -10 11 -10 5 0 7 -5 3 -12 -4 -7 -3 -8 5 -4 9 6 9
11 0 22 -14 17 -19 18 -19 4z"/>
<path d="M600 380 c8 -5 20 -10 25 -10 6 0 3 5 -5 10 -8 5 -19 10 -25 10 -5 0
-3 -5 5 -10z"/>
<path d="M657 356 c-4 -10 -1 -13 8 -9 8 3 12 9 9 14 -7 12 -11 11 -17 -5z"/>
<path d="M1851 284 c0 -11 3 -14 6 -6 3 7 2 16 -1 19 -3 4 -6 -2 -5 -13z"/>
<path d="M916 235 c-3 -8 -1 -15 4 -15 6 0 10 7 10 15 0 8 -2 15 -4 15 -2 0
-6 -7 -10 -15z"/>
<path d="M1736 233 c-6 -14 -5 -15 5 -6 7 7 10 15 7 18 -3 3 -9 -2 -12 -12z"/>
<path d="M1299 188 c0 -2 -2 -11 -4 -21 -3 -15 -1 -16 11 -6 7 6 11 15 8 20
-5 9 -13 12 -15 7z"/>
<path d="M1396 162 c-3 -5 1 -9 9 -9 8 0 12 4 9 9 -3 4 -7 8 -9 8 -2 0 -6 -4
-9 -8z"/>
</g>
</svg>
