<svg xmlns="http://www.w3.org/2000/svg" xml:space="preserve" style="fill-rule:evenodd;clip-rule:evenodd;stroke-linejoin:round;stroke-miterlimit:2" viewBox="0 0 2134 2134"><path d="M2133 250v1633c0 138-112 250-250 250H250A250 250 0 0 1 0 1883V250C0 112 112 0 250 0h1633c138 0 250 112 250 250Z" style="fill:#fff"/><path d="M1967 0H167C75 0 0 75 0 167v1800c0 92 75 166 167 166h1800c92 0 166-74 166-166V167c0-92-74-167-166-167Zm100 1967c0 55-45 100-100 100H167c-56 0-100-45-100-100V167c0-56 44-100 100-100h1800c55 0 100 44 100 100v1800Z" style="fill-rule:nonzero"/><path d="M1800 474v333c0 91-74 166-166 166h-335c-91 0-166-75-166-166V474c0-91 75-166 166-166h335c92 0 166 75 166 166Zm-67 0c0-54-44-99-99-99h-335c-54 0-99 45-99 99v333c0 55 45 99 99 99h335c55 0 99-44 99-99V474ZM1800 1362v332c0 92-74 166-166 166h-335c-91 0-166-74-166-166v-332c0-92 75-166 166-166h335c92 0 166 74 166 166Zm-67 0c0-55-44-100-99-100h-335c-54 0-99 45-99 100v332c0 55 45 100 99 100h335c55 0 99-45 99-100v-332ZM1000 474v333c0 91-74 166-166 166H499c-91 0-166-75-166-166V474c0-91 75-166 166-166h335c92 0 166 75 166 166Zm-67 0c0-54-44-99-99-99H499c-54 0-99 45-99 99v333c0 55 45 99 99 99h335c55 0 99-44 99-99V474ZM1000 1362v332c0 92-74 166-166 166H499c-91 0-166-74-166-166v-332c0-92 75-166 166-166h335c92 0 166 74 166 166Zm-67 0c0-55-44-100-99-100H499c-54 0-99 45-99 100v332c0 55 45 100 99 100h335c55 0 99-45 99-100v-332Z"/></svg>