<svg xmlns="http://www.w3.org/2000/svg" xmlns:xlink="http://www.w3.org/1999/xlink" width="203" height="67" viewBox="0" version="1.1"><title>rouge-rose_sprite</title><description>Created with Sketch (http://www.bohemiancoding.com/sketch)</description><g id="logo" stroke="none" stroke-width="1" fill="none" fill-rule="evenodd"><path d="M78.5 1.5L58.5 65.5" id="Line" stroke="#000000" stroke-linecap="square"/><path d="M74.07 51.58C73.24 51.35 72.62 51.24 72.06 51.24 69.65 51.24 67.64 53.36 67.64 55.92 67.64 58.07 69.14 59.79 71.05 59.79 72.06 59.79 73.13 59.32 74.07 58.43L74.07 59.79 74.53 59.79 76.9 59.29 76.9 58.56C75.99 58.83 75.6 58.53 75.6 57.73L75.6 47 75.14 47 72.75 47.71 72.75 48.12 74.07 48.85 74.07 51.58ZM74.07 57.55C73.55 58.22 72.79 58.58 71.93 58.58 69.85 58.58 69.16 56.24 69.16 54.97 69.16 53.34 70.3 52.02 71.68 52.02 72.68 52.02 74.07 52.76 74.07 54.97 74.07 54.97 74.07 52.76 74.07 54.97L74.07 57.55ZM85.22 54.57C85.22 53.29 84.2 51.24 81.87 51.24 79.73 51.24 78.08 53.13 78.08 55.61 78.08 58.04 79.65 59.79 81.85 59.79 83.22 59.79 84.44 59.09 85.22 57.82L84.84 57.47C84.15 58.07 83.42 58.34 82.57 58.34 80.89 58.34 79.35 57 79.44 54.57 79.44 54.57 79.35 57 79.44 54.57L85.22 54.57ZM79.55 53.92C79.71 52.69 80.47 51.91 81.52 51.91 82.52 51.91 83.17 52.64 83.32 53.92 83.32 53.92 83.17 52.64 83.32 53.92L79.55 53.92ZM91.63 52.02C90.96 51.49 90.15 51.24 89.19 51.24 87.63 51.24 86.54 52.16 86.54 53.49 86.54 54.01 86.74 54.63 87.1 54.99 88.59 56.48 90.98 56.44 90.98 57.84 90.98 58.58 90.29 59.12 89.33 59.12 88.24 59.12 87.57 58.34 87.39 56.93L86.79 56.93 86.79 59.21C87.48 59.56 88.55 59.79 89.46 59.79 91.16 59.79 92.23 58.89 92.23 57.4 92.23 56.8 92.03 56.22 91.65 55.84 90.62 54.81 87.86 54.48 87.86 53.13 87.86 52.35 88.37 51.91 89.22 51.91 90.22 51.91 90.8 52.55 91.07 53.98L91.63 53.98 91.63 52.02ZM94.82 57.62C94.82 58.53 94.21 58.94 93.52 58.94L93.52 59.59 97.47 59.59 97.47 58.94C96.82 58.92 96.35 58.49 96.35 57.49L96.35 51.24 95.89 51.24 93.45 52.13 93.45 52.55 94.82 53.23 94.82 57.62ZM94.53 47.98C94.53 48.52 94.97 48.96 95.51 48.96 96.06 48.96 96.49 48.52 96.49 47.98 96.49 47.43 96.06 47 95.51 47 94.97 47 94.53 47.43 94.53 47.98 94.53 47.98 94.53 47.43 94.53 47.98ZM106.87 51.73C106.57 51.77 106.42 51.78 106.09 51.78 105.1 51.78 104.41 51.64 103.81 51.49 103.21 51.35 102.69 51.24 102.04 51.24 100.21 51.24 98.86 52.53 98.86 54.19 98.86 55.25 99.35 56.04 100.35 56.62 99.32 57.47 98.85 58.04 98.85 58.47 98.85 58.87 99.19 59.2 99.88 59.5 98.76 60.36 98.34 60.88 98.34 61.39 98.34 62.02 99.3 63.06 101.85 63.06 104.61 63.06 106.62 61.81 106.62 60.07 106.62 58.87 105.41 58.16 103.74 58.16L102.29 58.16C100.78 58.16 100.37 58.02 100.37 57.58 100.37 57.37 100.55 57.2 100.91 56.89 101.46 57 101.76 57.04 102.05 57.04 103.43 57.04 105.41 56.17 105.41 54.12 105.41 53.69 105.33 53.32 105.13 52.85 105.71 53 106.44 53.03 106.87 52.96 106.87 52.96 106.44 53.03 106.87 52.96L106.87 51.73ZM100.46 54.01C100.46 52.8 101.18 52.02 102 52.02 102.74 52.02 103.81 52.71 103.81 54.34 103.81 55.55 103.29 56.35 102.25 56.35 101.09 56.35 100.46 55.28 100.46 54.01 100.46 54.01 100.46 55.28 100.46 54.01ZM103.2 59.79C104.79 59.79 105.44 60.07 105.44 60.75 105.44 61.79 103.34 62.13 102.18 62.13 101.69 62.13 99.64 61.99 99.64 60.94 99.64 60.54 99.88 60.27 100.49 59.65 101.15 59.74 101.71 59.79 102.29 59.79 102.29 59.79 101.71 59.79 102.29 59.79L103.2 59.79ZM110.12 53.52C110.9 52.87 111.66 52.45 112.49 52.45 113.67 52.45 114.2 53.31 114.2 54.45L114.2 57.46C114.2 58.43 113.78 58.94 112.73 58.94L112.73 59.59 117 59.59 117 58.94C115.97 58.83 115.72 58.4 115.72 57.49L115.72 54.05C115.72 52.09 114.74 51.24 113.05 51.24 112.06 51.24 110.9 51.8 110.15 52.78L110.12 52.78 110.12 51.24 109.66 51.24 107.38 52.09 107.38 52.51 108.6 53.2 108.6 57.57C108.6 58.47 108.16 58.91 107.25 58.94L107.25 59.59 111.59 59.59 111.59 58.94C110.52 58.94 110.12 58.45 110.12 57.46 110.12 57.46 110.12 58.45 110.12 57.46L110.12 53.52ZM131.36 51.73C131.05 51.77 130.9 51.78 130.58 51.78 129.58 51.78 128.89 51.64 128.29 51.49 127.7 51.35 127.17 51.24 126.52 51.24 124.69 51.24 123.35 52.53 123.35 54.19 123.35 55.25 123.84 56.04 124.83 56.62 123.8 57.47 123.33 58.04 123.33 58.47 123.33 58.87 123.67 59.2 124.36 59.5 123.24 60.36 122.82 60.88 122.82 61.39 122.82 62.02 123.78 63.06 126.34 63.06 129.09 63.06 131.1 61.81 131.1 60.07 131.1 58.87 129.89 58.16 128.22 58.16L126.77 58.16C125.27 58.16 124.85 58.02 124.85 57.58 124.85 57.37 125.03 57.2 125.39 56.89 125.94 57 126.25 57.04 126.54 57.04 127.91 57.04 129.89 56.17 129.89 54.12 129.89 53.69 129.82 53.32 129.62 52.85 130.2 53 130.92 53.03 131.36 52.96 131.36 52.96 130.92 53.03 131.36 52.96L131.36 51.73ZM124.94 54.01C124.94 52.8 125.67 52.02 126.48 52.02 127.22 52.02 128.29 52.71 128.29 54.34 128.29 55.55 127.77 56.35 126.74 56.35 125.58 56.35 124.94 55.28 124.94 54.01 124.94 54.01 124.94 55.28 124.94 54.01ZM127.68 59.79C129.27 59.79 129.92 60.07 129.92 60.75 129.92 61.79 127.82 62.13 126.66 62.13 126.17 62.13 124.13 61.99 124.13 60.94 124.13 60.54 124.36 60.27 124.98 59.65 125.63 59.74 126.19 59.79 126.77 59.79 126.77 59.79 126.19 59.79 126.77 59.79L127.68 59.79ZM135.05 54.01C135.78 52.98 136.1 52.67 136.54 52.67 137.14 52.67 137.28 53.52 137.9 53.52 138.46 53.52 138.64 52.44 138.64 52.35 138.64 51.98 138.1 51.31 137.3 51.31 136.36 51.31 135.91 51.69 135.09 53.03L135.05 53.03 135.05 51.24 134.6 51.24 132.19 52.22 132.19 52.64 133.53 53.31 133.53 57.55C133.53 58.58 132.92 58.94 132.19 58.94L132.19 59.59 136.9 59.59 136.9 58.94C135.31 58.94 135.05 58.56 135.05 57.2 135.05 57.2 135.05 58.56 135.05 57.2L135.05 54.01ZM144.11 54.68L142.18 55.35C140.16 56.04 139.4 56.73 139.4 57.86 139.4 58.98 140.25 59.79 141.43 59.79 142.32 59.79 143.06 59.43 144.11 58.49 144.21 59.32 144.66 59.79 145.35 59.79 145.84 59.79 146.29 59.54 146.81 58.94L146.65 58.29C146.04 58.69 145.64 58.49 145.64 57.82L145.64 53.18C145.64 51.8 144.71 51.24 142.99 51.24 140.62 51.24 139.66 52.51 139.66 53.36 139.66 53.76 140.15 54.67 140.25 54.61L141.32 54.1C141.79 53.89 141.05 53.27 141.05 52.87 141.05 52.45 141.74 52.02 142.45 52.02 143.05 52.02 144.11 52.38 144.11 53.45 144.11 53.45 144.11 52.38 144.11 53.45L144.11 54.68ZM144.11 55.37L144.11 57.64C143.5 58.29 142.94 58.58 142.28 58.58 141.38 58.58 141.02 57.96 141.02 57.4 141.02 56.64 141.69 56.28 143.15 55.73 143.15 55.73 141.69 56.28 143.15 55.73L144.11 55.37ZM150.33 59.27C151.02 59.61 151.74 59.79 152.45 59.79 154.75 59.79 156.62 57.69 156.62 55.08 156.62 52.84 155.24 51.24 153.28 51.24 152.18 51.24 151.27 51.66 150.33 52.6L150.33 51.24 149.88 51.24 147.52 52.13 147.52 52.55 148.81 53.23 148.81 61.08C148.81 61.84 148.35 62.4 147.47 62.4L147.47 63.06 151.87 63.06 151.87 62.4C150.84 62.4 150.33 62.1 150.33 60.9 150.33 60.9 150.33 62.1 150.33 60.9L150.33 59.27ZM150.33 53.34C151.02 52.8 151.78 52.51 152.47 52.51 153.56 52.51 155.1 53.4 155.1 55.92 155.1 57.91 154.14 59.01 152.6 59.01 151.31 59.01 150.33 58.13 150.33 56.57 150.33 56.57 150.33 58.13 150.33 56.57L150.33 53.34ZM165.99 53.87C165.99 51.95 164.81 51.24 163.5 51.24 162.42 51.24 161.64 51.58 160.5 52.6L160.5 47 160.04 47 157.62 47.83 157.62 48.25 158.97 49.01 158.97 57.49C158.97 58.25 158.68 58.94 157.62 58.94L157.62 59.59 161.95 59.59 161.95 58.94C160.88 58.94 160.5 58.47 160.5 57.37L160.5 53.29C161.17 52.76 161.95 52.45 162.71 52.45 163.76 52.45 164.47 53.13 164.47 54.23L164.47 57.64C164.47 58.36 164.07 58.94 163.11 58.94L163.11 59.59 167.31 59.59 167.31 58.94C166.55 58.94 165.99 58.53 165.99 57.55 165.99 57.55 165.99 58.53 165.99 57.55L165.99 53.87ZM169.45 57.62C169.45 58.53 168.83 58.94 168.14 58.94L168.14 59.59 172.09 59.59 172.09 58.94C171.44 58.92 170.97 58.49 170.97 57.49L170.97 51.24 170.52 51.24 168.07 52.13 168.07 52.55 169.45 53.23 169.45 57.62ZM169.16 47.98C169.16 48.52 169.59 48.96 170.14 48.96 170.68 48.96 171.12 48.52 171.12 47.98 171.12 47.43 170.68 47 170.14 47 169.59 47 169.16 47.43 169.16 47.98 169.16 47.98 169.16 47.43 169.16 47.98ZM179.76 60.95C179.76 62.02 179.29 62.42 178.26 62.42L178.26 63.06 182.51 63.06 182.51 62.42C181.52 62.28 181.28 61.84 181.28 60.88L181.28 51.44C181.28 51.31 181.21 51.24 181.08 51.24L180.79 51.24C180.67 51.24 180.59 51.33 180.59 51.44L180.59 52C179.67 51.48 178.71 51.24 177.68 51.24 175.05 51.24 173.31 53.13 173.31 55.84 173.31 57.69 174.32 59.81 176.82 59.81 177.8 59.81 178.53 59.47 179.76 58.4 179.76 58.4 178.53 59.47 179.76 58.4L179.76 60.95ZM179.76 57.58C178.82 58.25 178.29 58.47 177.6 58.47 175.97 58.47 174.74 56.95 174.74 54.92 174.74 53.13 175.79 51.91 177.33 51.91 178.85 51.91 179.76 53.03 179.76 54.9 179.76 54.9 179.76 53.03 179.76 54.9L179.76 57.58ZM192.7 58.58C191.7 58.8 191.47 58.53 191.47 57.71L191.47 51.44 188.39 51.64 188.39 52.29C189.64 52.29 189.94 52.44 189.94 53.87L189.94 57.57C189.07 58.25 188.44 58.51 187.64 58.51 186.56 58.51 185.99 57.87 185.99 56.5L185.99 51.44 183.02 51.64 183.02 52.29C184.15 52.29 184.47 52.44 184.47 53.87L184.47 57.42C184.47 59.12 185.58 59.79 186.92 59.79 187.99 59.79 188.89 59.38 189.94 58.4L189.94 59.79 192.7 59.29 192.7 58.58ZM200.98 54.57C200.98 53.29 199.97 51.24 197.63 51.24 195.49 51.24 193.84 53.13 193.84 55.61 193.84 58.04 195.42 59.79 197.61 59.79 198.99 59.79 200.2 59.09 200.98 57.82L200.6 57.47C199.91 58.07 199.19 58.34 198.34 58.34 196.65 58.34 195.11 57 195.2 54.57 195.2 54.57 195.11 57 195.2 54.57L200.98 54.57ZM195.31 53.92C195.47 52.69 196.23 51.91 197.28 51.91 198.28 51.91 198.93 52.64 199.08 53.92 199.08 53.92 198.93 52.64 199.08 53.92L195.31 53.92Z" id="design-graphique" fill="#898989"/><path d="M2.01 28.55C2.46 27.32 3.09 26.33 3.51 26.33 3.93 26.33 4.17 27.14 3.99 27.92L1.65 38 3.93 38C4.98 31.4 8.55 26.72 9.33 26.72 9.96 26.72 9.06 28.61 10.47 28.61 11.19 28.61 11.7 27.77 11.7 26.6 11.7 25.37 11.25 24.68 10.41 24.68 8.76 24.68 7.23 26.87 5.28 30.98L5.22 30.92 6 27.62C6.45 25.67 5.49 24.68 4.5 24.68 3.3 24.68 2.04 26.15 1.17 28.55 1.17 28.55 2.04 26.15 1.17 28.55L2.01 28.55ZM11.37 34.04C11.37 36.86 13.05 38.33 15.36 38.33 19.41 38.33 23.25 33.32 23.25 29.09 23.25 26.42 21.93 24.68 19.56 24.68 15.54 24.68 11.37 29.57 11.37 34.04 11.37 34.04 11.37 29.57 11.37 34.04ZM13.89 33.98C13.89 30.95 15.63 25.82 18.63 25.82 19.86 25.82 20.85 27.17 20.85 29.24 20.85 31.34 19.32 37.19 16.14 37.19 14.67 37.19 13.89 36.05 13.89 33.98 13.89 33.98 13.89 36.05 13.89 33.98ZM25.8 28.61C26.67 27.32 27.6 26.42 28.11 26.42 28.53 26.42 28.65 26.84 28.38 27.65L26.04 34.58C25.2 37.07 25.98 38.3 27.57 38.3 29.73 38.3 32.4 35.99 35.07 30.98L35.13 31.04 33.93 34.94C33.3 37.01 33.48 38.3 35.13 38.3 36.54 38.3 38.04 36.83 39.48 34.37L38.49 34.37C37.83 35.54 36.93 36.44 36.42 36.44 36.06 36.44 35.79 36.02 36.03 35.21L39.21 24.86 36.99 24.86C34.98 30.59 30.87 36.83 28.65 36.83 28.02 36.83 27.96 36.17 28.29 35.09L30.69 27.17C31.23 25.34 30.33 24.68 29.34 24.68 28.08 24.68 26.19 26.33 24.78 28.61 24.78 28.61 26.19 26.33 24.78 28.61L25.8 28.61ZM42.54 30.32C42.54 31.52 43.11 32.42 44.34 33.11 42.18 33.92 41.46 34.88 41.46 35.96 41.46 36.53 41.73 37.01 42.27 37.4 39.87 38.57 38.91 39.59 38.91 40.76 38.91 41.93 40.02 43.73 44.13 43.73 48.99 43.73 50.49 41.78 50.49 39.92 50.49 35.72 43.47 36.71 43.47 35 43.47 34.55 43.89 34.16 45.51 33.53 46.11 33.53 46.47 33.59 46.77 33.59 49.71 33.59 52.35 31.1 52.35 28.34 52.35 27.41 52.08 26.63 51.48 25.97 52.95 25.67 52.59 27.11 53.76 27.11 54.24 27.11 54.36 26.84 54.36 25.94 54.36 25.1 53.85 24.68 52.86 24.68 52.65 24.68 52.32 24.71 51.9 24.77 51.48 24.83 50.97 24.95 50.37 25.1 49.68 24.8 49.14 24.68 48.36 24.68 44.19 24.68 42.54 28.49 42.54 30.32 42.54 30.32 42.54 28.49 42.54 30.32ZM47.88 25.79C49.14 25.79 50.04 26.75 50.04 28.1 50.04 30.53 48.54 32.48 46.71 32.48 45.57 32.48 44.79 31.58 44.79 30.23 44.79 28.34 45.93 25.79 47.88 25.79 47.88 25.79 45.93 25.79 47.88 25.79ZM43.38 38C45.21 38.6 48.57 38.57 48.57 40.7 48.57 41.99 47.13 42.71 44.55 42.71 42.06 42.71 40.65 41.99 40.65 40.7 40.65 39.62 41.4 38.9 43.38 38 43.38 38 41.4 38.9 43.38 38ZM62.37 33.83C61.56 35.27 59.91 36.26 58.35 36.26 56.73 36.26 55.74 35.18 56.07 32.69 62.16 31.55 64.02 29 64.02 26.99 64.02 25.58 63.09 24.68 61.68 24.68 58.47 24.68 53.76 30.05 53.76 34.49 53.76 36.86 55.2 38.3 57.48 38.3 59.82 38.3 62.1 36.62 63.54 33.83 63.54 33.83 62.1 36.62 63.54 33.83L62.37 33.83ZM62.13 27.62C62.13 29.15 60.36 31.01 56.25 31.64 57.36 28.07 58.92 26.12 60.69 26.12 61.5 26.12 62.13 26.78 62.13 27.62 62.13 27.62 62.13 26.78 62.13 27.62ZM74.58 28.55C75.03 27.32 75.66 26.33 76.08 26.33 76.5 26.33 76.74 27.14 76.56 27.92L74.22 38 76.5 38C77.55 31.4 81.12 26.72 81.9 26.72 82.53 26.72 81.63 28.61 83.04 28.61 83.76 28.61 84.27 27.77 84.27 26.6 84.27 25.37 83.82 24.68 82.98 24.68 81.33 24.68 79.8 26.87 77.85 30.98L77.79 30.92 78.57 27.62C79.02 25.67 78.06 24.68 77.07 24.68 75.87 24.68 74.61 26.15 73.74 28.55 73.74 28.55 74.61 26.15 73.74 28.55L74.58 28.55ZM83.94 34.04C83.94 36.86 85.62 38.33 87.93 38.33 91.98 38.33 95.82 33.32 95.82 29.09 95.82 26.42 94.5 24.68 92.13 24.68 88.11 24.68 83.94 29.57 83.94 34.04 83.94 34.04 83.94 29.57 83.94 34.04ZM86.46 33.98C86.46 30.95 88.2 25.82 91.2 25.82 92.43 25.82 93.42 27.17 93.42 29.24 93.42 31.34 91.89 37.19 88.71 37.19 87.24 37.19 86.46 36.05 86.46 33.98 86.46 33.98 86.46 36.05 86.46 33.98ZM100.8 27.23C100.8 26.39 101.37 25.79 102.21 25.79 103.95 25.79 103.59 27.83 104.94 27.83 105.6 27.83 106.02 27.35 106.02 26.6 106.02 25.43 104.91 24.68 103.2 24.68 100.98 24.68 99.15 25.94 99.15 28.49 99.15 31.13 102.75 33.59 102.75 35.6 102.75 36.41 101.79 37.19 100.8 37.19 99.03 37.19 99.48 34.85 97.92 34.85 97.29 34.85 96.81 35.42 96.81 36.14 96.81 37.37 98.22 38.3 100.05 38.3 102.63 38.3 104.52 36.68 104.52 34.43 104.52 31.49 100.8 28.88 100.8 27.23 100.8 27.23 100.8 28.88 100.8 27.23ZM116.01 33.83C115.2 35.27 113.55 36.26 111.99 36.26 110.37 36.26 109.38 35.18 109.71 32.69 115.8 31.55 117.66 29 117.66 26.99 117.66 25.58 116.73 24.68 115.32 24.68 112.11 24.68 107.4 30.05 107.4 34.49 107.4 36.86 108.84 38.3 111.12 38.3 113.46 38.3 115.74 36.62 117.18 33.83 117.18 33.83 115.74 36.62 117.18 33.83L116.01 33.83ZM115.77 27.62C115.77 29.15 114 31.01 109.89 31.64 111 28.07 112.56 26.12 114.33 26.12 115.14 26.12 115.77 26.78 115.77 27.62 115.77 27.62 115.77 26.78 115.77 27.62Z" id="rouge-rose" fill="#000000"/></g></svg>